<svg width="50" height="49" viewBox="0 0 50 49" fill="none" xmlns="http://www.w3.org/2000/svg">
<rect width="50" height="49" fill="#E5E5E5"/>
<rect width="50" height="49" fill="white"/>
<path d="M3.53906 10.5625H14.1445C16.319 10.5625 18.1875 10.888 19.75 11.5391C21.3255 12.1901 22.5365 13.1536 23.3828 14.4297C24.2292 15.7057 24.6523 17.2747 24.6523 19.1367C24.6523 20.6602 24.3919 21.9688 23.8711 23.0625C23.3633 24.1432 22.6406 25.0482 21.7031 25.7773C20.7786 26.4935 19.6914 27.0664 18.4414 27.4961L16.5859 28.4727H7.36719L7.32812 23.9023H14.1836C15.2122 23.9023 16.0651 23.7201 16.7422 23.3555C17.4193 22.9909 17.9271 22.4831 18.2656 21.832C18.6172 21.181 18.793 20.4258 18.793 19.5664C18.793 18.6549 18.6237 17.8672 18.2852 17.2031C17.9466 16.5391 17.4323 16.0312 16.7422 15.6797C16.0521 15.3281 15.1862 15.1523 14.1445 15.1523H9.39844V39H3.53906V10.5625ZM19.4375 39L12.9531 26.3242L19.1445 26.2852L25.707 38.7266V39H19.4375ZM29.0859 36.2852C29.0859 35.4518 29.3724 34.7552 29.9453 34.1953C30.5312 33.6354 31.306 33.3555 32.2695 33.3555C33.2331 33.3555 34.0013 33.6354 34.5742 34.1953C35.1602 34.7552 35.4531 35.4518 35.4531 36.2852C35.4531 37.1185 35.1602 37.8151 34.5742 38.375C34.0013 38.9349 33.2331 39.2148 32.2695 39.2148C31.306 39.2148 30.5312 38.9349 29.9453 38.375C29.3724 37.8151 29.0859 37.1185 29.0859 36.2852Z" fill="#9F1239"/>
</svg>
